<?xml version="1.0" encoding="utf-8"?>
<!-- Generator: Adobe Illustrator 22.0.1, SVG Export Plug-In . SVG Version: 6.00 Build 0)  -->
<svg version="1.1" id="Layer_1" xmlns="http://www.w3.org/2000/svg" xmlns:xlink="http://www.w3.org/1999/xlink" x="0px" y="0px"
	 viewBox="0 0 120.5 81.1" style="enable-background:new 0 0 120.5 81.1;" xml:space="preserve">
<style type="text/css">
	.st0{fill:url(#XMLID_2_);stroke:#4D4D4D;stroke-miterlimit:10;}
	.st1{fill:#FC6186;}
	.st2{fill:#FC6186;stroke:#FC6186;stroke-miterlimit:10;}
</style>
<radialGradient id="XMLID_2_" cx="885.1817" cy="1658.277" r="189.4011" gradientTransform="matrix(0.2529 0 0 0.2725 -164.0239 -411.3513)" gradientUnits="userSpaceOnUse">
	<stop  offset="0.6564" style="stop-color:#D3FC62"/>
	<stop  offset="0.7641" style="stop-color:#FC6186"/>
</radialGradient>
<path id="XMLID_763_" class="st0" d="M113.8,56.7c-3.6-3.6-9.2-7.9-16.2-12.4l-0.2-0.2L97.2,44c-1.5-0.7-3.2-0.4-3.9,0.7
	c-0.7,1.2-0.2,2.8,1.2,3.8c3.7,2.6,6.6,5.1,8.4,7.1c1.5,1.6,1.8,2.5,1.8,2.7c-0.2,0.1-1,0.4-3.1,0.3c-2.6-0.1-6.2-0.8-10.5-1.9
	c-0.9-0.2-1.8-0.5-2.8-0.8c0.2-0.4,0.4-0.9,0.6-1.4c7.2-17.6-0.2-38.2-16.5-46C56,0.7,36.9,8.7,29.7,26.3c-0.2,0.5-0.4,0.9-0.5,1.4
	c-0.8-0.6-1.6-1.1-2.4-1.7c-3.7-2.6-6.6-5.1-8.4-7c-1.5-1.6-1.8-2.4-1.8-2.7c0.2-0.1,1-0.4,3.1-0.3c2.6,0.1,6.2,0.8,10.5,1.9
	c1.6,0.4,3.1-0.2,3.4-1.6c0.3-1.3-0.6-2.9-2.1-3.6l-0.3-0.1l-0.3-0.1C23.1,10,16.5,8.5,11.5,8C5.3,7.4,1.6,8.5,0.4,11.3
	c-1.7,4.2,3.2,10.6,14.7,18.9c3.5,2.5,7.5,5.1,11.8,7.8C26,52.2,33.3,66.2,46.1,72.3s27.3,2.5,36.5-7.8c4.7,1.7,9.2,3.1,13.3,4.2
	c13.4,3.5,21.1,3.2,22.8-1C120.1,65,118.4,61.2,113.8,56.7z M84.7,31.8l0.9-1.6l0.8,1.6l1.5,0.9l-1.5,0.8l-0.9,1.6l-0.8-1.6
	l-1.5-0.9L84.7,31.8z M76.5,25.7c0.5,0,0.9,0.4,0.9,1c0,0.5-0.4,1-0.9,1s-0.9-0.4-0.9-1S76,25.7,76.5,25.7z M77.4,36.5
	c2.1,0,3.7,1.8,3.7,4s-1.7,4-3.7,4c-2.1,0-3.7-1.8-3.7-4C73.6,38.3,75.3,36.5,77.4,36.5z M65,23.7l0.5-0.9l0.4,0.9l0.8,0.5l-0.8,0.5
	l-0.5,0.9L65,24.7l-0.8-0.5L65,23.7z M115.8,66.3c-1.1,2.7-8.2,2.6-19.3-0.4c-11.4-3-26-8.6-41-15.7s-28.6-14.9-38.4-22
	C7.5,21.3,2.7,15.8,3.8,13.1c1.2-2.9,8.9-2.6,21,0.8c-5-1-10.3-1.3-11.3,1.1c-1.4,3.4,6.5,9.7,11.2,13.2
	c8.2,5.9,19.6,12.5,32.2,18.4c12.6,6,24.8,10.7,34.4,13.2c5.6,1.5,15.2,3.5,16.6,0.1c1-2.4-2.8-6.4-6.8-9.7
	C111.6,57.5,117,63.4,115.8,66.3z"/>
<polygon id="XMLID_756_" class="st1" points="9,44.5 7.1,47.9 3.7,49.8 7,51.8 8.6,55.4 10.5,52 13.9,50.1 10.6,48.1 "/>
<ellipse id="XMLID_770_" class="st1" cx="27.9" cy="68.2" rx="2.4" ry="2.6"/>
<polygon id="XMLID_755_" class="st2" points="103.6,20.2 101.7,23.7 98.4,25.5 101.6,27.5 103.3,31.2 105.2,27.7 108.5,25.8 
	105.3,23.8 "/>
</svg>
