<?xml version="1.0" encoding="utf-8"?>
<!-- Generator: Adobe Illustrator 22.0.1, SVG Export Plug-In . SVG Version: 6.00 Build 0)  -->
<svg version="1.1" id="Layer_1" xmlns="http://www.w3.org/2000/svg" xmlns:xlink="http://www.w3.org/1999/xlink" x="0px" y="0px"
	 viewBox="0 0 265.4 87.1" style="enable-background:new 0 0 265.4 87.1;" xml:space="preserve">
<style type="text/css">
	.st0{fill:#FC6186;}
	.st1{fill:#FC6186;stroke:#FC6186;stroke-miterlimit:10;}
	.st2{fill:#4D4D4D;}
	.st3{fill:url(#XMLID_3_);stroke:#4D4D4D;stroke-miterlimit:10;}
</style>
<polygon id="XMLID_750_" class="st0" points="93.8,34.2 95.5,35.3 96.4,37.3 97.4,35.4 99.2,34.4 97.5,33.3 96.6,31.4 95.6,33.3 "/>
<polygon id="XMLID_755_" class="st1" points="165.9,71.8 164,75.3 160.7,77.1 163.9,79.1 165.6,82.8 167.5,79.3 170.8,77.4 
	167.6,75.4 "/>
<polygon id="XMLID_756_" class="st0" points="20,39.4 18.1,42.8 14.7,44.7 18,46.7 19.6,50.3 21.5,46.9 24.9,45 21.6,43 "/>
<ellipse id="XMLID_768_" class="st0" cx="158" cy="8" rx="3.7" ry="4"/>
<ellipse id="XMLID_770_" class="st0" cx="32.3" cy="71.3" rx="2.4" ry="2.6"/>
<g>
	<g>
		<path class="st2" d="M165.7,46.8c-0.2,19.1-10,30.5-24.2,30.4c-14.5-0.1-22.9-13.3-22.7-29.9c0.2-17.4,9.7-30.4,24-30.2
			C157.8,17.3,165.8,30.7,165.7,46.8z M130.4,47.2c-0.1,11.4,4.3,19.5,11.7,19.6c7.5,0.1,11.8-8.3,11.9-19.6
			c0.1-10.5-4-19.5-11.6-19.6C135,27.5,130.5,35.9,130.4,47.2z"/>
		<path class="st2" d="M172.9,15.3l11,0.1l-0.6,61.3l-11-0.1L172.9,15.3z"/>
		<path class="st2" d="M192.8,15.5l11,0.1l-0.6,61.3l-11-0.1L192.8,15.5z"/>
		<path class="st2" d="M223.9,62.1L220.3,77l-11.4-0.1l15.4-58.1l14.4,0.1l14.6,58.4l-11.9-0.1l-3.6-15L223.9,62.1z M236.4,52.5
			l-2.9-12.4c-0.8-3.4-1.6-7.8-2.3-11.2H231c-0.7,3.4-1.5,7.8-2.3,11.2l-3,12.3L236.4,52.5z"/>
	</g>
</g>
<radialGradient id="XMLID_3_" cx="347.4119" cy="41.2477" r="189.4011" gradientTransform="matrix(0.2529 0 0 -0.2725 -22.2314 58.58)" gradientUnits="userSpaceOnUse">
	<stop  offset="0.6564" style="stop-color:#D3FC62"/>
	<stop  offset="0.7641" style="stop-color:#FC6186"/>
</radialGradient>
<path id="XMLID_763_" class="st3" d="M119.6,63.5c-3.6-3.6-9.2-7.9-16.2-12.4l-0.2-0.2l-0.2-0.1c-1.5-0.7-3.2-0.4-3.9,0.7
	c-0.7,1.2-0.2,2.8,1.2,3.8c3.7,2.6,6.6,5.1,8.4,7.1c1.5,1.6,1.8,2.5,1.8,2.7c-0.2,0.1-1,0.4-3.1,0.3c-2.6-0.1-6.2-0.8-10.5-1.9
	c-0.9-0.2-1.8-0.5-2.8-0.8c0.2-0.4,0.4-0.9,0.6-1.4c7.2-17.6-0.2-38.2-16.5-46c-16.4-7.8-35.5,0.2-42.7,17.8
	c-0.2,0.5-0.4,0.9-0.5,1.4c-0.8-0.6-1.6-1.1-2.4-1.7c-3.7-2.6-6.6-5.1-8.4-7c-1.5-1.6-1.8-2.4-1.8-2.7c0.2-0.1,1-0.4,3.1-0.3
	c2.6,0.1,6.2,0.8,10.5,1.9c1.6,0.4,3.1-0.2,3.4-1.6c0.3-1.3-0.6-2.9-2.1-3.6L37,19.4l-0.3-0.1c-7.8-2.5-14.4-4-19.4-4.5
	c-6.2-0.6-9.9,0.5-11.1,3.3C4.5,22.3,9.4,28.7,20.9,37c3.5,2.5,7.5,5.1,11.8,7.8C31.8,59,39.1,73,51.9,79.1
	c12.8,6.1,27.3,2.5,36.5-7.8c4.7,1.7,9.2,3.1,13.3,4.2c13.4,3.5,21.1,3.2,22.8-1C125.9,71.8,124.2,68,119.6,63.5z M90.5,38.6
	l0.9-1.6l0.8,1.6l1.5,0.9l-1.5,0.8l-0.9,1.6l-0.8-1.6L89,39.4L90.5,38.6z M82.3,32.5c0.5,0,0.9,0.4,0.9,1c0,0.5-0.4,1-0.9,1
	s-0.9-0.4-0.9-1S81.8,32.5,82.3,32.5z M83.2,43.3c2.1,0,3.7,1.8,3.7,4s-1.7,4-3.7,4c-2.1,0-3.7-1.8-3.7-4
	C79.4,45.1,81.1,43.3,83.2,43.3z M70.8,30.5l0.5-0.9l0.4,0.9l0.8,0.5l-0.8,0.5l-0.5,0.9l-0.4-0.9L70,31L70.8,30.5z M121.6,73.1
	c-1.1,2.7-8.2,2.6-19.3-0.4c-11.4-3-26-8.6-41-15.7S32.7,42.1,22.9,35C13.3,28.1,8.5,22.6,9.6,19.9c1.2-2.9,8.9-2.6,21,0.8
	c-5-1-10.3-1.3-11.3,1.1c-1.4,3.4,6.5,9.7,11.2,13.2c8.2,5.9,19.6,12.5,32.2,18.4c12.6,6,24.8,10.7,34.4,13.2
	c5.6,1.5,15.2,3.5,16.6,0.1c1-2.4-2.8-6.4-6.8-9.7C117.4,64.3,122.8,70.2,121.6,73.1z"/>
<polygon id="XMLID_1_" class="st0" points="258.5,21.3 256.6,24.8 253.3,26.6 256.5,28.7 258.2,32.3 260.1,28.8 263.4,27 
	260.2,24.9 "/>
</svg>
