<?xml version="1.0" encoding="utf-8"?>
<!-- Generator: Adobe Illustrator 22.0.1, SVG Export Plug-In . SVG Version: 6.00 Build 0)  -->
<svg version="1.1" id="Layer_1" xmlns="http://www.w3.org/2000/svg" xmlns:xlink="http://www.w3.org/1999/xlink" x="0px" y="0px"
	 viewBox="0 0 154.7 84.9" style="enable-background:new 0 0 154.7 84.9;" xml:space="preserve">
<style type="text/css">
	.st0{fill:#4D4D4D;}
	.st1{fill:#FC6186;stroke:#FC6186;stroke-miterlimit:10;}
	.st2{fill:#FC6186;}
</style>
<g>
	<g>
		<path class="st0" d="M60.8,44c-0.2,19.1-10,30.5-24.2,30.4c-14.5-0.1-22.9-13.3-22.7-29.9c0.2-17.4,9.7-30.4,24-30.2
			C52.9,14.5,60.9,27.9,60.8,44z M25.5,44.4C25.4,55.8,29.8,63.9,37.2,64c7.5,0.1,11.8-8.3,11.9-19.6c0.1-10.5-4-19.5-11.6-19.6
			C30.1,24.7,25.6,33.1,25.5,44.4z"/>
		<path class="st0" d="M68,12.5l11,0.1l-0.6,61.3l-11-0.1L68,12.5z"/>
		<path class="st0" d="M87.9,12.7l11,0.1l-0.6,61.3l-11-0.1L87.9,12.7z"/>
		<path class="st0" d="M119,59.3l-3.6,14.9L104,74.1L119.4,16l14.4,0.1l14.6,58.4l-11.9-0.1l-3.6-15L119,59.3z M131.5,49.7
			l-2.9-12.4c-0.8-3.4-1.6-7.8-2.3-11.2h-0.2c-0.7,3.4-1.5,7.8-2.3,11.2l-3,12.3L131.5,49.7z"/>
	</g>
</g>
<polygon id="XMLID_755_" class="st1" points="14,74.5 12.1,78 8.8,79.8 12,81.8 13.7,85.5 15.6,82 18.9,80.1 15.7,78.1 "/>
<ellipse id="XMLID_768_" class="st2" cx="52.8" cy="8.5" rx="3.7" ry="4"/>
<polygon id="XMLID_1_" class="st2" points="148.5,20.6 146.6,24.1 143.3,25.9 146.5,28 148.2,31.6 150.1,28.1 153.4,26.3 
	150.2,24.2 "/>
<ellipse id="XMLID_770_" class="st2" cx="8.8" cy="49.7" rx="2.4" ry="2.6"/>
</svg>
