<?xml version="1.0" encoding="utf-8"?>
<!-- Generator: Adobe Illustrator 22.0.1, SVG Export Plug-In . SVG Version: 6.00 Build 0)  -->
<svg version="1.1" id="Layer_1" xmlns="http://www.w3.org/2000/svg" xmlns:xlink="http://www.w3.org/1999/xlink" x="0px" y="0px"
	 viewBox="0 0 500 800" style="enable-background:new 0 0 500 800;" xml:space="preserve">
<style type="text/css">
	.st0{fill:#FC6186;}
	.st1{fill:#FC6186;stroke:#FC6186;stroke-miterlimit:10;}
	.st2{fill:#4D4D4D;}
	.st3{fill:url(#XMLID_3_);stroke:#4D4D4D;stroke-miterlimit:10;}
</style>
<polygon id="XMLID_750_" class="st0" points="127.8,294.2 129.5,295.3 130.4,297.3 131.4,295.4 133.2,294.4 131.5,293.3 
	130.6,291.4 129.6,293.3 "/>
<polygon id="XMLID_755_" class="st1" points="153.3,336.1 151.4,339.6 148.1,341.4 151.3,343.4 153,347.1 154.9,343.6 158.2,341.7 
	155,339.7 "/>
<polygon id="XMLID_756_" class="st0" points="54,299.4 52.1,302.8 48.7,304.7 52,306.7 53.6,310.3 55.5,306.9 58.9,305 55.6,303 "/>
<ellipse id="XMLID_768_" class="st0" cx="188.3" cy="264" rx="3.7" ry="4"/>
<ellipse id="XMLID_770_" class="st0" cx="66.3" cy="331.3" rx="2.4" ry="2.6"/>
<g>
	<g>
		<path class="st2" d="M199.7,306.8c-0.2,19.1-10,30.5-24.2,30.4c-14.5-0.1-22.9-13.3-22.7-29.9c0.2-17.4,9.7-30.4,24-30.2
			C191.8,277.3,199.8,290.7,199.7,306.8z M164.4,307.2c-0.1,11.4,4.3,19.5,11.7,19.6c7.5,0.1,11.8-8.3,11.9-19.6
			c0.1-10.5-4-19.5-11.6-19.6C169,287.5,164.5,295.9,164.4,307.2z"/>
		<path class="st2" d="M206.9,275.3l11,0.1l-0.6,61.3l-11-0.1L206.9,275.3z"/>
		<path class="st2" d="M226.8,275.5l11,0.1l-0.6,61.3l-11-0.1L226.8,275.5z"/>
		<path class="st2" d="M257.9,322.1l-3.6,14.9l-11.4-0.1l15.4-58.1l14.4,0.1l14.6,58.4l-11.9-0.1l-3.6-15L257.9,322.1z M270.4,312.5
			l-2.9-12.4c-0.8-3.4-1.6-7.8-2.3-11.2l-0.2,0c-0.7,3.4-1.5,7.8-2.3,11.2l-3,12.3L270.4,312.5z"/>
	</g>
</g>
<radialGradient id="XMLID_3_" cx="381.4119" cy="498.7523" r="189.4011" gradientTransform="matrix(0.2529 0 0 0.2725 3.17 171.43)" gradientUnits="userSpaceOnUse">
	<stop  offset="0.6564" style="stop-color:#D3FC62"/>
	<stop  offset="0.7641" style="stop-color:#FC6186"/>
</radialGradient>
<path id="XMLID_763_" class="st3" d="M153.6,323.5c-3.6-3.6-9.2-7.9-16.2-12.4l-0.2-0.2l-0.2-0.1c-1.5-0.7-3.2-0.4-3.9,0.7
	c-0.7,1.2-0.2,2.8,1.2,3.8c3.7,2.6,6.6,5.1,8.4,7.1c1.5,1.6,1.8,2.5,1.8,2.7c-0.2,0.1-1,0.4-3.1,0.3c-2.6-0.1-6.2-0.8-10.5-1.9
	c-0.9-0.2-1.8-0.5-2.8-0.8c0.2-0.4,0.4-0.9,0.6-1.4c7.2-17.6-0.2-38.2-16.5-46c-16.4-7.8-35.5,0.2-42.7,17.8
	c-0.2,0.5-0.4,0.9-0.5,1.4c-0.8-0.6-1.6-1.1-2.4-1.7c-3.7-2.6-6.6-5.1-8.4-7c-1.5-1.6-1.8-2.4-1.8-2.7c0.2-0.1,1-0.4,3.1-0.3
	c2.6,0.1,6.2,0.8,10.5,1.9c1.6,0.4,3.1-0.2,3.4-1.6c0.3-1.3-0.6-2.9-2.1-3.6l-0.3-0.1l-0.3-0.1c-7.8-2.5-14.4-4-19.4-4.5
	c-6.2-0.6-9.9,0.5-11.1,3.3c-1.7,4.2,3.2,10.6,14.7,18.9c3.5,2.5,7.5,5.1,11.8,7.8c-0.9,14.2,6.4,28.2,19.2,34.3
	c12.8,6.1,27.3,2.5,36.5-7.8c4.7,1.7,9.2,3.1,13.3,4.2c13.4,3.5,21.1,3.2,22.8-1C159.9,331.8,158.2,328,153.6,323.5z M124.5,298.6
	l0.9-1.6l0.8,1.6l1.5,0.9l-1.5,0.8l-0.9,1.6l-0.8-1.6l-1.5-0.9L124.5,298.6z M116.3,292.5c0.5,0,0.9,0.4,0.9,1c0,0.5-0.4,1-0.9,1
	c-0.5,0-0.9-0.4-0.9-1C115.4,292.9,115.8,292.5,116.3,292.5z M117.2,303.3c2.1,0,3.7,1.8,3.7,4c0,2.2-1.7,4-3.7,4
	c-2.1,0-3.7-1.8-3.7-4C113.4,305.1,115.1,303.3,117.2,303.3z M104.8,290.5l0.5-0.9l0.4,0.9l0.8,0.5l-0.8,0.5l-0.5,0.9l-0.4-0.9
	l-0.8-0.5L104.8,290.5z M155.6,333.1c-1.1,2.7-8.2,2.6-19.3-0.4c-11.4-3-26-8.6-41-15.7c-15-7.1-28.6-14.9-38.4-22
	c-9.6-6.9-14.4-12.4-13.3-15.1c1.2-2.9,8.9-2.6,21,0.8c-5-1-10.3-1.3-11.3,1.1c-1.4,3.4,6.5,9.7,11.2,13.2
	c8.2,5.9,19.6,12.5,32.2,18.4c12.6,6,24.8,10.7,34.4,13.2c5.6,1.5,15.2,3.5,16.6,0.1c1-2.4-2.8-6.4-6.8-9.7
	C151.4,324.3,156.8,330.2,155.6,333.1z"/>
<polygon id="XMLID_1_" class="st0" points="292.5,281.3 290.6,284.8 287.3,286.6 290.5,288.7 292.2,292.3 294.1,288.8 297.4,287 
	294.2,284.9 "/>
</svg>
